<?xml version="1.0" encoding="iso-8859-1"?>
<!-- Generator: Adobe Illustrator 16.0.0, SVG Export Plug-In . SVG Version: 6.00 Build 0)  -->
<!DOCTYPE svg PUBLIC "-//W3C//DTD SVG 1.1//EN" "http://www.w3.org/Graphics/SVG/1.1/DTD/svg11.dtd">
<svg version="1.1" id="Capa_1" xmlns="http://www.w3.org/2000/svg" xmlns:xlink="http://www.w3.org/1999/xlink" x="0px" y="0px"
	 width="86.263px" height="86.263px" viewBox="0 0 86.263 86.263" style="enable-background:new 0 0 86.263 86.263;"
	 xml:space="preserve">
<g>
	<g id="Wedding">
		<g>
			<path d="M84.25,38.79c-2.682-6.38-7.719-11.347-14.183-13.988c-6.467-2.642-13.587-2.636-20.049,0.011
				c-12.916,5.294-19.341,19.613-14.625,32.603c0.538,1.479,2.192,2.251,3.692,1.722c1.5-0.53,2.28-2.161,1.743-3.642
				c-2.274-6.265-1.217-12.92,2.296-18.065c0.757,1.111,1.414,2.293,1.941,3.548c2.091,4.974,2.093,10.453,0.008,15.433
				c-2.083,4.979-6.005,8.854-11.044,10.924c-5.037,2.059-10.587,2.063-15.627,0.006c-5.041-2.06-8.966-5.931-11.056-10.91
				c-2.091-4.973-2.093-10.453-0.011-15.432c2.085-4.979,6.007-8.854,11.044-10.919c4.954-2.026,10.424-2.069,15.402-0.102
				c1.476,0.589,3.16-0.128,3.751-1.588c0.593-1.46-0.128-3.122-1.61-3.706c-4.059-1.601-8.373-2.162-12.61-1.692l-0.033-8.429
				c-0.002-0.711-0.532-1.311-1.243-1.406l-10.584-1.46c-0.521-0.08-1.038,0.139-1.353,0.556L3.665,20.68
				c-0.43,0.566-0.375,1.363,0.131,1.865l6.027,5.979c-3.411,2.693-6.106,6.198-7.821,10.298c-2.673,6.384-2.668,13.41,0.011,19.795
				c2.682,6.379,7.719,11.352,14.183,13.986c3.229,1.321,6.62,1.979,10.01,1.979c3.401,0,6.802-0.663,10.039-1.989
				c2.539-1.04,4.846-2.449,6.886-4.15c4.782,3.984,10.848,6.107,16.991,6.107c3.369,0,6.759-0.642,9.973-1.957
				c6.462-2.646,11.493-7.619,14.167-14.004S86.93,45.174,84.25,38.79z M6.724,21.407l5.17-6.77l8.507,1.172l0.027,7.669
				c-1.442,0.324-2.867,0.765-4.259,1.335c-1.392,0.57-2.703,1.269-3.953,2.046L6.724,21.407z M78.928,56.409
				c-2.086,4.979-6.008,8.854-11.045,10.924c-6.98,2.856-15.028,1.594-20.784-3.06c1.32-1.733,2.45-3.626,3.312-5.684
				c2.674-6.385,2.668-13.416-0.01-19.8c-0.858-2.039-1.977-3.933-3.308-5.674c1.517-1.227,3.236-2.258,5.139-3.037
				c10.396-4.261,22.373,0.626,26.688,10.897C81.007,45.95,81.011,51.43,78.928,56.409z"/>
		</g>
	</g>
</g>
<g>
</g>
<g>
</g>
<g>
</g>
<g>
</g>
<g>
</g>
<g>
</g>
<g>
</g>
<g>
</g>
<g>
</g>
<g>
</g>
<g>
</g>
<g>
</g>
<g>
</g>
<g>
</g>
<g>
</g>
</svg>
