<?xml version="1.0" standalone="no"?>
<!DOCTYPE svg PUBLIC "-//W3C//DTD SVG 20010904//EN"
 "http://www.w3.org/TR/2001/REC-SVG-20010904/DTD/svg10.dtd">
<svg version="1.0" xmlns="http://www.w3.org/2000/svg"
 width="500.000000pt" height="500.000000pt" viewBox="0 0 500.000000 500.000000"
 preserveAspectRatio="xMidYMid meet">

<g transform="translate(0.000000,500.000000) scale(0.100000,-0.100000)"
fill="#000000" stroke="none">
<path d="M2070 4855 c-171 -48 -299 -171 -347 -334 -20 -70 -20 -189 1 -272
64 -250 288 -485 627 -656 75 -37 126 -57 149 -57 45 0 209 83 344 172 182
121 351 311 406 458 81 218 45 423 -99 564 -85 83 -219 140 -326 140 -97 -1
-217 -40 -292 -97 l-31 -24 -62 40 c-107 69 -260 96 -370 66z m194 -140 c65
-17 100 -38 163 -98 31 -29 51 -40 73 -40 22 0 42 11 73 40 64 60 99 81 167
99 81 20 150 12 229 -27 204 -102 241 -355 87 -588 -85 -127 -272 -278 -479
-386 l-77 -40 -77 40 c-209 109 -393 258 -479 387 -173 259 -100 545 155 614
62 17 96 17 165 -1z"/>
<path d="M1270 3736 c-72 -16 -106 -35 -171 -94 -30 -27 -65 -53 -79 -57 -38
-12 -173 -81 -237 -122 -81 -51 -265 -240 -345 -353 -201 -283 -371 -786 -423
-1249 -18 -157 -13 -203 27 -265 33 -51 85 -81 196 -116 56 -17 102 -34 102
-37 0 -3 -16 -22 -36 -41 -46 -45 -95 -121 -125 -197 -24 -60 -24 -60 -27
-535 -2 -261 -1 -485 2 -496 3 -12 18 -27 33 -33 21 -8 644 -11 2400 -9 2263
3 2373 4 2390 21 17 17 18 51 18 510 l0 492 -27 73 c-15 41 -42 99 -60 129
-48 79 -152 174 -240 217 -68 34 -430 148 -578 182 -77 18 -90 28 -90 63 0 22
12 32 71 65 79 45 179 136 229 211 19 27 49 83 67 125 l32 75 62 7 c73 8 118
36 151 93 20 34 23 54 23 141 0 96 -1 103 -32 153 -32 50 -33 57 -33 154 0 56
-7 132 -15 169 -63 300 -295 530 -597 592 -105 22 -419 22 -523 1 -289 -60
-509 -267 -592 -560 -8 -27 -17 -111 -20 -185 -6 -125 -8 -137 -32 -169 -25
-33 -26 -40 -26 -156 0 -119 1 -122 29 -159 35 -47 96 -75 159 -76 34 0 47 -4
47 -14 0 -8 21 -57 47 -107 56 -110 172 -235 268 -291 51 -29 60 -39 63 -65 3
-33 -25 -63 -59 -63 -38 0 -556 -162 -610 -191 -77 -41 -169 -125 -217 -199
l-39 -60 -28 40 c-16 23 -42 52 -58 66 -16 14 -28 26 -26 28 2 2 49 18 104 36
122 39 166 67 199 122 35 61 39 99 26 234 -31 319 -109 622 -239 928 -170 402
-424 682 -733 807 -45 19 -90 46 -120 75 -88 82 -199 114 -308 90z m164 -159
c42 -24 90 -78 101 -115 7 -23 6 -23 -47 -15 -70 10 -229 10 -295 0 -34 -6
-53 -5 -53 1 0 24 69 109 105 129 54 31 136 31 189 0z m2492 -108 c87 -15 228
-87 300 -153 120 -109 192 -257 199 -416 l5 -85 -16 48 c-9 28 -25 54 -41 64
-24 16 -28 16 -72 -1 -134 -52 -159 -58 -262 -64 -127 -6 -189 4 -389 64 -309
91 -407 106 -538 84 -86 -14 -103 -31 -123 -120 -7 -33 -17 -60 -21 -60 -10 0
0 110 17 181 53 217 226 391 449 449 56 15 109 19 252 19 99 1 207 -4 240 -10z
m-2928 -66 c-2 -9 -34 -35 -73 -57 -43 -25 -107 -78 -165 -136 -76 -76 -104
-113 -142 -185 -57 -111 -87 -206 -95 -305 -5 -63 -10 -80 -33 -105 -49 -54
-60 -86 -60 -186 0 -74 4 -102 21 -136 27 -56 87 -93 151 -93 52 0 55 -3 91
-90 52 -125 153 -236 288 -318 43 -26 65 -46 67 -61 4 -26 -14 -51 -37 -51 -9
0 -123 -32 -255 -71 l-238 -71 -162 52 c-91 29 -171 61 -185 73 -23 21 -23 25
-18 132 19 353 163 832 343 1141 110 189 262 348 428 448 67 40 79 43 74 19z
m817 -53 c115 -80 232 -202 327 -342 193 -283 353 -786 393 -1234 9 -107 -2
-118 -207 -184 l-162 -52 -241 71 c-132 39 -248 71 -257 71 -9 0 -24 7 -32 16
-29 29 -19 50 38 79 125 63 240 186 311 331 l44 92 60 4 c44 3 68 11 94 31 53
40 67 80 67 190 0 107 -9 139 -49 182 -23 24 -30 43 -35 95 -11 109 -35 190
-87 295 -71 146 -188 273 -326 353 -39 23 -63 44 -63 55 0 16 3 16 43 -4 23
-12 60 -34 82 -49z m-306 -56 c188 -49 346 -175 436 -346 38 -71 75 -199 75
-255 l0 -34 -257 3 c-253 3 -259 4 -333 31 -117 43 -239 117 -393 241 -78 62
-204 40 -252 -46 -11 -20 -31 -79 -45 -132 -23 -93 -25 -96 -52 -96 -25 0 -28
4 -28 33 0 59 30 161 72 247 77 155 234 289 403 344 115 37 255 41 374 10z
m1770 -424 c46 -6 154 -31 240 -56 255 -74 352 -94 473 -94 93 0 200 14 277
36 l23 7 -4 -184 c-4 -166 -7 -190 -30 -251 -99 -264 -342 -425 -607 -405
-201 16 -396 148 -483 327 -56 115 -63 161 -62 370 2 204 8 241 45 251 35 10
36 10 128 -1z m-2292 -78 c159 -126 334 -219 478 -255 l90 -22 -4 -78 c-3 -64
0 -82 14 -98 24 -26 79 -25 106 2 18 18 21 30 17 95 l-3 74 114 0 113 0 -4
-117 c-4 -95 -10 -131 -31 -185 -89 -231 -293 -372 -537 -372 -242 0 -447 144
-536 379 -22 57 -27 92 -32 190 l-5 121 26 11 c34 16 49 47 82 168 26 97 39
125 55 125 5 0 30 -17 57 -38z m1973 -257 c0 -85 -2 -95 -18 -95 -32 0 -42 22
-42 95 0 73 10 95 42 95 16 0 18 -10 18 -95z m1518 83 c16 -16 16 -150 0 -166
-7 -7 -20 -12 -30 -12 -16 0 -18 10 -18 95 0 85 2 95 18 95 10 0 23 -5 30 -12z
m-3848 -193 c0 -83 -1 -85 -24 -85 -29 0 -36 16 -36 85 0 69 7 85 36 85 23 0
24 -2 24 -85z m1478 20 c4 -83 -3 -105 -33 -105 -25 0 -25 1 -25 86 l0 85 28
-3 c26 -3 27 -6 30 -63z m1623 -658 l126 1 12 -40 c7 -22 11 -41 9 -43 -2 -1
-27 -8 -56 -14 -67 -14 -202 -13 -267 3 -53 12 -52 10 -38 78 5 27 7 28 47 20
22 -4 98 -6 167 -5z m-2343 -95 l94 3 13 -40 c17 -49 62 -91 112 -104 232 -62
519 -148 561 -168 70 -33 149 -113 187 -188 l30 -60 3 -432 3 -433 -101 0
-100 0 0 363 c0 411 0 406 -82 485 -104 101 -211 146 -348 146 -136 0 -233
-39 -336 -135 -35 -32 -71 -59 -80 -59 -9 0 -43 24 -75 54 -208 188 -492 189
-687 2 -62 -58 -83 -105 -89 -196 -7 -97 7 -143 48 -160 27 -11 34 -10 57 7
25 19 27 27 32 111 5 90 6 92 43 130 63 64 138 96 232 100 107 5 174 -20 264
-98 83 -71 119 -90 171 -90 59 0 99 20 174 88 82 75 148 102 246 102 97 0 169
-29 237 -94 l53 -52 -2 -350 -3 -349 -705 0 -705 0 -3 125 c-3 140 -12 160
-67 160 -58 0 -70 -25 -73 -166 l-4 -124 -99 0 -100 0 3 427 3 428 27 58 c33
71 112 155 179 191 46 26 464 154 552 170 51 9 103 58 124 115 l16 47 51 -8
c28 -5 93 -7 144 -6z m2154 -140 c49 -9 88 -20 88 -23 0 -3 -36 -38 -79 -77
l-80 -72 -26 87 c-14 49 -28 94 -31 102 -3 10 2 12 18 7 13 -3 62 -14 110 -24z
m438 21 c0 -23 -55 -183 -63 -183 -10 0 -149 127 -155 142 -2 4 11 8 30 9 18
0 62 8 98 18 76 21 90 23 90 14z m-870 -85 c-63 -110 -82 -157 -76 -182 5 -22
149 -251 412 -656 77 -118 153 -236 169 -262 34 -55 63 -73 100 -64 20 5 47
39 113 142 48 74 156 241 241 372 286 441 293 453 288 492 -3 19 -30 79 -60
133 -31 53 -51 97 -45 97 21 0 296 -84 343 -105 107 -48 198 -151 237 -270 23
-69 23 -78 23 -490 l0 -420 -142 -3 -143 -3 0 365 c0 339 -1 365 -18 387 -23
28 -73 30 -102 4 -19 -17 -20 -32 -22 -384 l-3 -366 -732 -3 -731 -2 -4 124
c-3 141 -15 166 -73 166 -58 0 -70 -25 -73 -166 l-4 -124 -134 0 -134 0 0 418
c0 320 3 429 14 468 33 125 124 240 232 293 44 23 320 109 352 110 8 1 -2 -27
-28 -71z m269 -292 c50 -165 89 -301 87 -303 -2 -3 -21 22 -42 54 -20 32 -82
127 -137 212 -55 85 -100 159 -100 165 0 12 94 179 98 174 1 -2 44 -138 94
-302z m785 212 c26 -45 45 -84 44 -88 -10 -24 -274 -430 -280 -430 -4 0 -1 19
6 43 137 448 171 557 177 557 4 0 28 -37 53 -82z m-426 -51 c30 -31 31 -34 16
-55 -12 -17 -25 -22 -60 -22 -38 0 -46 4 -56 26 -11 24 -9 28 22 55 19 16 37
29 41 29 3 0 19 -15 37 -33z m-18 -239 c0 -7 9 -73 19 -146 l19 -134 -31 -96
-30 -97 -28 85 c-34 102 -34 110 -12 273 16 121 18 127 40 127 13 0 23 -6 23
-12z"/>
<path d="M3365 2625 c-21 -21 -25 -33 -25 -88 0 -79 20 -110 70 -110 51 0 70
30 70 113 0 62 -2 71 -26 89 -35 27 -59 26 -89 -4z"/>
<path d="M3940 2632 c-18 -14 -24 -32 -28 -75 -6 -71 10 -111 49 -128 26 -10
34 -9 57 8 25 18 27 27 30 96 2 67 0 78 -19 96 -28 26 -60 27 -89 3z"/>
<path d="M3492 2217 c-28 -29 -28 -52 0 -93 56 -82 189 -116 302 -78 26 9 65
33 87 54 47 45 54 98 17 124 -33 23 -61 20 -102 -13 -65 -52 -132 -52 -198 0
-44 35 -77 37 -106 6z"/>
<path d="M1021 2521 c-38 -38 -40 -143 -5 -182 22 -24 76 -25 97 -1 26 29 24
155 -3 182 -25 25 -64 26 -89 1z"/>
<path d="M1140 2120 c-45 -45 -3 -122 89 -163 96 -42 247 -15 306 55 30 36 33
88 7 111 -23 21 -76 22 -93 1 -22 -27 -66 -44 -112 -44 -34 0 -53 7 -82 30
-44 35 -86 39 -115 10z"/>
<path d="M2853 1038 c-12 -6 -27 -24 -32 -41 -14 -39 -14 -145 0 -185 21 -60
102 -63 128 -5 6 13 11 57 11 98 0 84 -12 118 -47 134 -28 13 -31 13 -60 -1z"/>
</g>
</svg>
